<svg width="40" height="40" viewBox="0 0 40 40" fill="none" xmlns="http://www.w3.org/2000/svg">
<path d="M40 7.48387C40 3.35063 36.6493 0 32.5161 0H7.48387C3.35063 0 0 3.35063 0 7.48387V32.5161C0 36.6493 3.35063 40 7.48387 40H32.5161C36.6493 40 40 36.6493 40 32.5161V7.48387Z" fill="#0246CC"/>
<path d="M20 14.1037C26.3393 14.1037 31.4782 12.3379 31.4782 10.1597C31.4782 7.98158 26.3393 6.21582 20 6.21582C13.6607 6.21582 8.52174 7.98158 8.52174 10.1597C8.52174 12.3379 13.6607 14.1037 20 14.1037Z" fill="white"/>
<path d="M8.52643 19.7383V23.6581C8.52643 24.9512 12.9962 26.8295 20 26.8295C27.0039 26.8295 31.4736 24.9512 31.4736 23.6581V19.7383C29.1141 21.2764 24.5411 22.0724 20 22.0724C15.4589 22.0724 10.8859 21.2764 8.52643 19.7383Z" fill="#287EFF"/>
<path d="M8.52643 13.0542V17.4267C8.52643 18.7199 12.9962 20.5981 20 20.5981C27.0039 20.5981 31.4736 18.7199 31.4736 17.4267V13.0542C29.2782 14.7437 25.064 15.841 20 15.841C14.9361 15.841 10.722 14.7437 8.52643 13.0542Z" fill="#96C0FF"/>
<path d="M8.52643 26.0815V30.0013C8.52643 31.2944 12.9962 33.1726 20 33.1726C27.0039 33.1726 31.4736 31.2944 31.4736 30.0013V26.0815C29.1141 27.6196 24.5411 28.4157 20 28.4157C15.4589 28.4157 10.8859 27.6196 8.52643 26.0815Z" fill="#0258ED"/>
</svg>
